name analog
datacolumns 19
datarows 18
range 0.41300000000000003 0.4215
endheader
time	ground_force_vx	ground_force_vy	ground_force_vz	ground_force_px	ground_force_py	ground_force_pz	l_ground_force_vx	l_ground_force_vy	l_ground_force_vz	l_ground_force_px	l_ground_force_py	l_ground_force_pz	ground_torque_x	ground_torque_y	ground_torque_z	l_ground_torque_x	l_ground_torque_y	l_ground_torque_z
0.41300000000000003	-0.0	-0.0	-0.0	-4.208199977874756	44.622314453125	-403.39208984375	-1.3387444019317627	-44.650638580322266	-422.6003112792969	-0.0	-0.0	-0.0	-0.0	-0.0	-0.0	90428.3671875	13397.08984375	-2191.248779296875
0.41350000000000003	-0.0	-0.0	-0.0	-3.997611522674561	44.58871078491211	-403.0046997070313	-1.7017885446548462	-44.241058349609375	-422.7264709472656	-0.0	-0.0	-0.0	-0.0	-0.0	-0.0	90267.875	13213.02734375	-2310.04931640625
0.41400000000000003	-0.0	-0.0	-0.0	-3.6257882118225098	44.79859161376953	-404.55078125	-1.5812054872512815	-43.94328689575195	-422.1566467285156	-0.0	-0.0	-0.0	-0.0	-0.0	-0.0	90347.1171875	13066.5419921875	-2104.97509765625
0.41450000000000004	-0.0	-0.0	-0.0	-3.617318630218506	44.57974243164063	-403.2975158691406	-1.111758589744568	-43.751007080078125	-423.52093505859375	-0.0	-0.0	-0.0	-0.0	-0.0	-0.0	90535.6171875	12907.6015625	-2152.836669921875
0.41500000000000004	-0.0	-0.0	-0.0	-3.5856823921203613	44.11378860473633	-402.75048828125	-0.9106109142303468	-43.98419952392578	-423.7716064453125	-0.0	-0.0	-0.0	-0.0	-0.0	-0.0	90836.5234375	12780.59375	-2144.841552734375
0.41550000000000004	-0.0	-0.0	-0.0	-3.787092447280884	44.27499771118164	-403.1721496582031	-0.8152334690093994	-43.31114959716797	-425.0755310058594	-0.0	-0.0	-0.0	-0.0	-0.0	-0.0	90907.2421875	12575.4384765625	-1888.2099609375
0.41600000000000004	-0.0	-0.0	-0.0	-3.323428153991699	44.71206665039063	-404.0525817871094	-0.0570985376834869	-43.78454208374024	-423.8031921386719	-0.0	-0.0	-0.0	-0.0	-0.0	-0.0	91106.84375	12384.3994140625	-1817.8275146484373
0.4165	-0.0	-0.0	-0.0	-3.136103391647339	44.19596862792969	-402.27197265625	0.2004549652338028	-43.6224250793457	-424.41058349609375	-0.0	-0.0	-0.0	-0.0	-0.0	-0.0	91183.3125	12383.712890625	-1715.19384765625
0.417	-0.0	-0.0	-0.0	-3.372204303741455	43.58932876586914	-401.8302612304688	-0.0172120928764343	-43.4427375793457	-424.7937622070313	-0.0	-0.0	-0.0	-0.0	-0.0	-0.0	91137.5	12355.021484375	-1730.565185546875
0.4175	-0.0	-0.0	-0.0	-2.867928028106689	43.49088287353516	-400.7526245117188	0.3374765515327453	-43.4196891784668	-425.2325134277344	-0.0	-0.0	-0.0	-0.0	-0.0	-0.0	91077.0	12284.6650390625	-1820.294921875
0.418	-0.0	-0.0	-0.0	-2.627200126647949	42.871726989746094	-402.3433837890625	0.1912301182746887	-43.21174240112305	-424.6027526855469	-0.0	-0.0	-0.0	-0.0	-0.0	-0.0	91071.6015625	12366.5390625	-1790.6822509765625
0.4185	-0.0	-0.0	-0.0	-1.922574758529663	42.908084869384766	-400.3980102539063	0.3060852885246277	-43.83385848999024	-425.0747680664063	-0.0	-0.0	-0.0	-0.0	-0.0	-0.0	91152.84375	12166.544921875	-1890.1661376953125
0.419	-0.0	-0.0	-0.0	-2.0209994316101074	42.85924530029297	-400.2618408203125	0.2439823448657989	-44.31543350219727	-425.0396728515625	-0.0	-0.0	-0.0	-0.0	-0.0	-0.0	91341.15625	12093.28125	-1706.3695068359375
0.4195	-0.0	-0.0	-0.0	-1.6857799291610718	43.14521408081055	-401.21240234375	0.4655932188034057	-44.13890075683594	-425.26666259765625	-0.0	-0.0	-0.0	-0.0	-0.0	-0.0	91199.4921875	11989.1904296875	-1635.0325927734375
0.42	-0.0	-0.0	-0.0	-1.2889037132263184	42.96085357666016	-399.0823974609375	0.9089540243148804	-44.68181228637695	-426.4001159667969	-0.0	-0.0	-0.0	-0.0	-0.0	-0.0	91339.3359375	11921.1650390625	-1602.2449951171875
0.4205	-0.0	-0.0	-0.0	-1.328782558441162	42.64421463012695	-400.0786743164063	1.260112762451172	-45.12334060668945	-426.1216735839844	-0.0	-0.0	-0.0	-0.0	-0.0	-0.0	91135.90625	11766.095703125	-1410.84814453125
0.421	-0.0	-0.0	-0.0	-0.7818847298622131	42.86442565917969	-401.2955932617188	1.752719163894653	-45.23300552368164	-426.3141479492188	-0.0	-0.0	-0.0	-0.0	-0.0	-0.0	91098.9296875	11554.7822265625	-1421.8865966796875
0.4215	-0.0	-0.0	-0.0	-0.763038158416748	42.742774963378906	-401.12982177734375	2.187218427658081	-45.251121520996094	-425.8085021972656	-0.0	-0.0	-0.0	-0.0	-0.0	-0.0	91202.0	11470.3388671875	-1239.457275390625
